<svg width="11" height="11" viewBox="0 0 11 11" fill="none" xmlns="http://www.w3.org/2000/svg">
<path d="M2.34375 11H0.164062V3.99219H2.34375V11ZM1.26562 3.03125C0.921875 3.03125 0.625 2.90625 0.375 2.65625C0.125 2.40625 0 2.10938 0 1.76562C0 1.42187 0.125 1.125 0.375 0.875C0.625 0.625 0.921875 0.5 1.26562 0.5C1.60938 0.5 1.90625 0.625 2.15625 0.875C2.40625 1.125 2.53125 1.42187 2.53125 1.76562C2.53125 2.10938 2.40625 2.40625 2.15625 2.65625C1.90625 2.90625 1.60938 3.03125 1.26562 3.03125ZM10.5 11H8.32031V7.57812C8.32031 7.01562 8.27344 6.60938 8.17969 6.35938C8.00781 5.9375 7.67188 5.72656 7.17188 5.72656C6.67188 5.72656 6.32031 5.91406 6.11719 6.28906C5.96094 6.57031 5.88281 6.98438 5.88281 7.53125V11H3.72656V3.99219H5.8125V4.95312H5.83594C5.99219 4.64062 6.24219 4.38281 6.58594 4.17969C6.96094 3.92969 7.39844 3.80469 7.89844 3.80469C8.91406 3.80469 9.625 4.125 10.0312 4.76562C10.3438 5.28125 10.5 6.07812 10.5 7.15625V11Z" fill="#18130C"/>
</svg>
