<svg width="20" height="20" viewBox="0 0 20 20" fill="none" xmlns="http://www.w3.org/2000/svg">
<g clip-path="url(#clip0_31_5293)">
<path d="M18.674 19.3426L17.1539 4.86708C17.122 4.56404 16.8666 4.33394 16.5619 4.33394H13.7048V3.68254C13.7048 1.65206 12.0528 -7.62939e-06 10.0223 -7.62939e-06C7.99165 -7.62939e-06 6.33959 1.65206 6.33959 3.68254V4.33394H3.48254C3.17782 4.33394 2.92239 4.56404 2.8905 4.86708L1.37042 19.3426C1.35287 19.5103 1.40735 19.6777 1.52011 19.8031C1.63302 19.9284 1.79385 20 1.96246 20H18.0818C18.2506 20 18.4114 19.9284 18.5242 19.8031C18.6372 19.6777 18.6916 19.5103 18.674 19.3426ZM7.53008 3.68254C7.53008 2.30849 8.64808 1.19048 10.0223 1.19048C11.3963 1.19048 12.5143 2.30849 12.5143 3.68254V4.33394H7.53008V3.68254ZM2.62347 18.8095L4.01858 5.52443H6.33959V6.83622C6.33959 7.1649 6.60616 7.43147 6.93483 7.43147C7.2635 7.43147 7.53008 7.1649 7.53008 6.83622V5.52443H12.5143V6.83622C12.5143 7.1649 12.7809 7.43147 13.1096 7.43147C13.4383 7.43147 13.7048 7.1649 13.7048 6.83622V5.52443H16.0258L17.421 18.8095H2.62347Z" fill="#18130C"/>
</g>
<defs>
<clipPath id="clip0_31_5293">
<rect width="20" height="20" fill="white"/>
</clipPath>
</defs>
</svg>
