<svg width="16" height="16" viewBox="0 0 16 16" fill="none" xmlns="http://www.w3.org/2000/svg">
<g clip-path="url(#clip0_31_5318)">
<path d="M7.99998 0C3.58172 0 0 3.58172 0 7.99998C0 12.4183 3.58172 16 7.99998 16C12.4183 16 16 12.4183 16 7.99998C15.9953 3.58369 12.4163 0.00472098 7.99998 0ZM7.99998 14.8571C4.21289 14.8571 1.14285 11.7871 1.14285 7.99998C1.14285 4.21289 4.21289 1.14285 7.99998 1.14285C11.7871 1.14285 14.8571 4.21289 14.8571 7.99998C14.853 11.7854 11.7854 14.853 7.99998 14.8571Z" fill="#18130C"/>
<path d="M7.99979 2.85712C7.68419 2.85712 7.42835 3.11296 7.42835 3.42856V7.42857H3.42837C3.11277 7.42857 2.85693 7.68441 2.85693 8.00001C2.85693 8.31561 3.11277 8.57141 3.42837 8.57141H7.99979C8.31539 8.57141 8.57123 8.31558 8.57123 7.99998V3.42856C8.57123 3.11296 8.31539 2.85712 7.99979 2.85712Z" fill="#18130C"/>
</g>
<defs>
<clipPath id="clip0_31_5318">
<rect width="16" height="16" fill="white"/>
</clipPath>
</defs>
</svg>
