<svg width="12" height="11" viewBox="0 0 12 11" fill="none" xmlns="http://www.w3.org/2000/svg">
<path d="M10.7578 3.0625C10.7734 3.125 10.7812 3.22656 10.7812 3.36719C10.7812 4.49219 10.5078 5.57812 9.96094 6.625C9.39844 7.73438 8.60938 8.61719 7.59375 9.27344C6.48438 10.0078 5.21094 10.375 3.77344 10.375C2.39844 10.375 1.14062 10.0078 0 9.27344C0.171875 9.28906 0.367188 9.29688 0.585938 9.29688C1.72656 9.29688 2.75 8.94531 3.65625 8.24219C3.10938 8.24219 2.625 8.08594 2.20312 7.77344C1.79688 7.44531 1.51562 7.03906 1.35938 6.55469C1.51562 6.57031 1.66406 6.57812 1.80469 6.57812C2.02344 6.57812 2.24219 6.55469 2.46094 6.50781C1.89844 6.38281 1.42969 6.09375 1.05469 5.64062C0.679688 5.1875 0.492188 4.67188 0.492188 4.09375V4.04688C0.835938 4.25 1.20312 4.35938 1.59375 4.375C1.26562 4.14062 1 3.84375 0.796875 3.48438C0.59375 3.125 0.492188 2.73438 0.492188 2.3125C0.492188 1.875 0.609375 1.46094 0.84375 1.07031C1.45312 1.83594 2.19531 2.44531 3.07031 2.89844C3.96094 3.35156 4.90625 3.60156 5.90625 3.64844C5.875 3.46094 5.85938 3.27344 5.85938 3.08594C5.85938 2.64844 5.96875 2.24219 6.1875 1.86719C6.40625 1.47656 6.70312 1.17187 7.07812 0.953125C7.45312 0.734375 7.85938 0.625 8.29688 0.625C8.65625 0.625 8.98438 0.695312 9.28125 0.835938C9.59375 0.976562 9.86719 1.16406 10.1016 1.39844C10.6641 1.28906 11.1875 1.09375 11.6719 0.8125C11.4844 1.39063 11.125 1.84375 10.5938 2.17188C11.0625 2.10938 11.5312 1.97656 12 1.77344C11.6562 2.27344 11.2422 2.70312 10.7578 3.0625Z" fill="#18130C"/>
</svg>
