<svg width="40" height="40" viewBox="0 0 40 40" fill="none" xmlns="http://www.w3.org/2000/svg">
<g clip-path="url(#clip0_46_1695)">
<path d="M39.4129 4.38374H27.6734L20.2958 0.0802246C20.1129 -0.026416 19.887 -0.026416 19.7041 0.0802246L12.3266 4.38374H0.587109C0.262891 4.38374 0 4.64663 0 4.97085V7.47577C0 7.79999 0.262891 8.06288 0.587109 8.06288H1.87867V32.5248C1.87867 32.849 2.14156 33.1119 2.46578 33.1119H19.413V38.8262H17.4952C17.1709 38.8262 16.908 39.0891 16.908 39.4133C16.908 39.7375 17.1709 40.0004 17.4952 40.0004H22.5049C22.8292 40.0004 23.092 39.7375 23.092 39.4133C23.092 39.0891 22.8292 38.8262 22.5049 38.8262H20.5871V33.1119H37.5343C37.8586 33.1119 38.1214 32.849 38.1214 32.5248V8.0628H39.413C39.7373 8.0628 40.0001 7.79991 40.0001 7.47569V4.97085C40 4.64663 39.7372 4.38374 39.4129 4.38374ZM20 1.26694L25.3431 4.38374H14.6569L20 1.26694ZM38.8259 6.88866H32.8376C32.5133 6.88866 32.2505 7.15155 32.2505 7.47577C32.2505 7.79999 32.5133 8.06288 32.8376 8.06288H36.9472V31.9376H3.05281V8.0628H30.1239C30.4482 8.0628 30.711 7.79991 30.711 7.47569C30.711 7.15147 30.4482 6.88858 30.1239 6.88858H1.17414V5.55796H38.8258V6.88866H38.8259Z" fill="white"/>
<path d="M12.4855 9.39331C9.39945 9.39331 6.88867 11.9041 6.88867 14.9902C6.88867 18.0763 9.39945 20.587 12.4855 20.587C15.5716 20.587 18.0824 18.0763 18.0824 14.9902C18.0824 11.9041 15.5716 9.39331 12.4855 9.39331ZM12.4855 19.4128C10.0469 19.4128 8.06281 17.4288 8.06281 14.9901C8.06281 12.5514 10.0469 10.5674 12.4855 10.5674C14.9242 10.5674 16.9083 12.5514 16.9083 14.9901C16.9083 17.4288 14.9242 19.4128 12.4855 19.4128Z" fill="white"/>
<path d="M30.9259 25.9491L32.9777 23.8974C33.5728 23.3023 33.5728 22.3339 32.9777 21.7388C32.3893 21.1502 31.4073 21.1502 30.8189 21.7388L28.7672 23.7905L26.7155 21.7388C26.1271 21.1502 25.1451 21.1502 24.5567 21.7388C23.9616 22.3339 23.9616 23.3023 24.5567 23.8974L26.6085 25.9491L24.5567 28.0009C23.9616 28.596 23.9616 29.5644 24.5567 30.1595C25.1449 30.7479 26.1272 30.748 26.7155 30.1595L28.7672 28.1078L30.8188 30.1595C31.4071 30.7479 32.3894 30.748 32.9777 30.1595C33.5728 29.5644 33.5728 28.596 32.9777 28.0009L30.9259 25.9491ZM32.1626 29.3133C32.0301 29.4636 31.791 29.4713 31.6493 29.3294L29.1824 26.8624C28.9561 26.6363 28.5783 26.6363 28.352 26.8624L25.885 29.3295C25.7433 29.4713 25.5042 29.4635 25.3717 29.3132C25.2506 29.1758 25.2574 28.9608 25.387 28.8313L27.8539 26.3643C28.0832 26.135 28.0832 25.7633 27.8539 25.5341L25.387 23.0671C25.2574 22.9376 25.2506 22.7226 25.3717 22.5852C25.5042 22.4348 25.7433 22.4271 25.8851 22.569L28.352 25.0359C28.5814 25.2652 28.9531 25.2652 29.1824 25.0359L31.6493 22.569C31.7911 22.4272 32.0302 22.4349 32.1627 22.5852C32.2838 22.7227 32.277 22.9376 32.1474 23.0671L29.6805 25.5341C29.4512 25.7634 29.4512 26.1351 29.6805 26.3643L32.1474 28.8313C32.277 28.9609 32.2838 29.1758 32.1626 29.3133Z" fill="white"/>
<path d="M33.5177 14.5318L30.3866 12.0269C30.1334 11.8243 29.764 11.8654 29.5614 12.1185C29.3588 12.3716 29.3999 12.7412 29.653 12.9437L31.4773 14.403H23.7576C22.0527 14.403 20.6656 15.7902 20.6656 17.495V23.7573C20.6656 24.8147 19.8052 25.6751 18.7478 25.6751H7.47578C7.15156 25.6751 6.88867 25.938 6.88867 26.2622C6.88867 26.5864 7.15156 26.8493 7.47578 26.8493H18.7478C20.4527 26.8493 21.8398 25.4622 21.8398 23.7574V17.4951C21.8398 16.4377 22.7001 15.5773 23.7576 15.5773H31.4773L29.653 17.0366C29.4231 17.2206 29.3655 17.5579 29.5225 17.8072C29.7066 18.0996 30.1163 18.1698 30.3866 17.9535L33.5177 15.4486C33.8068 15.2173 33.8068 14.7633 33.5177 14.5318Z" fill="white"/>
</g>
<defs>
<clipPath id="clip0_46_1695">
<rect width="40" height="40" fill="white"/>
</clipPath>
</defs>
</svg>
