<svg width="40" height="40" viewBox="0 0 40 40" fill="none" xmlns="http://www.w3.org/2000/svg">
<path d="M39.4129 4.38374H27.6734L20.2958 0.0802246C20.1129 -0.026416 19.887 -0.026416 19.7041 0.0802246L12.3266 4.38374H0.587109C0.262891 4.38374 0 4.64663 0 4.97085V7.47577C0 7.79999 0.262891 8.06288 0.587109 8.06288H1.87867V32.5248C1.87867 32.849 2.14156 33.1119 2.46578 33.1119H19.413V38.8262H17.4952C17.1709 38.8262 16.908 39.0891 16.908 39.4133C16.908 39.7375 17.1709 40.0004 17.4952 40.0004H22.5049C22.8292 40.0004 23.092 39.7375 23.092 39.4133C23.092 39.0891 22.8292 38.8262 22.5049 38.8262H20.5871V33.1119H37.5343C37.8586 33.1119 38.1214 32.849 38.1214 32.5248V8.0628H39.413C39.7373 8.0628 40.0001 7.79991 40.0001 7.47569V4.97085C40 4.64663 39.7372 4.38374 39.4129 4.38374ZM20 1.26694L25.3431 4.38374H14.6569L20 1.26694ZM38.8259 6.88866H32.8376C32.5133 6.88866 32.2505 7.15155 32.2505 7.47577C32.2505 7.79999 32.5133 8.06288 32.8376 8.06288H36.9472V31.9376H3.05281V8.0628H30.1239C30.4482 8.0628 30.711 7.79991 30.711 7.47569C30.711 7.15147 30.4482 6.88858 30.1239 6.88858H1.17414V5.55796H38.8258V6.88866H38.8259Z" fill="black"/>
</svg>
