<svg width="40" height="40" viewBox="0 0 40 40" fill="none" xmlns="http://www.w3.org/2000/svg">
<g clip-path="url(#clip0_46_1775)">
<path d="M38.4569 22.2984C38.6593 21.9174 38.5145 21.4445 38.1335 21.242C33.756 18.9157 28.4159 19.4736 24.6225 22.5909L23.3602 21.3286L25.4217 19.2671C25.7268 18.962 25.7268 18.4674 25.4217 18.1622C25.1165 17.8571 24.622 17.8571 24.3168 18.1622L22.2553 20.2237L17.2256 15.1939C18.3696 13.6596 19.0894 11.8575 19.3163 9.93849C19.5778 7.72631 19.1616 5.5135 18.1126 3.53953C17.9102 3.15851 17.437 3.01383 17.0561 3.21625C16.6751 3.41875 16.5304 3.89171 16.7328 4.27273C18.4155 7.43912 18.1521 11.199 16.1073 14.0757L12.7927 10.7611C12.3276 10.296 11.6665 10.103 11.0242 10.2445C10.3818 10.3861 9.86324 10.8393 9.63684 11.4569L0.119687 37.4202C-0.140234 38.1294 0.0299996 38.9017 0.564138 39.4358C0.932965 39.8046 1.41523 39.9999 1.91202 39.9999C2.13468 39.9999 2.36022 39.9606 2.57968 39.8802L28.5429 30.363C29.1604 30.1367 29.6136 29.618 29.7554 28.9758C29.8969 28.3334 29.7039 27.6723 29.2388 27.2072L25.7341 23.7025C29.0351 21.0686 33.6274 20.6168 37.4004 22.6218C37.7813 22.8243 38.2543 22.6795 38.4569 22.2984ZM12.4434 34.6003L5.39959 27.5565L7.3513 22.2323L17.7677 32.6486L12.4434 34.6003ZM8.62567 35.9998L4.00014 31.3743L4.80686 29.1736L10.8264 35.1931L8.62567 35.9998ZM2.04187 38.4131C1.85671 38.481 1.72882 38.3907 1.6689 38.331C1.60906 38.2711 1.51882 38.1431 1.58671 37.9581L3.40733 32.9913L7.00857 36.5925L2.04187 38.4131ZM28.2295 28.6393C28.2139 28.7101 28.1639 28.8377 28.0052 28.8959L23.2023 30.6565L18.7588 26.2129C18.4538 25.9077 17.9591 25.9078 17.654 26.2128C17.3489 26.5179 17.3488 27.0126 17.6539 27.3176L21.5853 31.2491L19.3846 32.0558L7.94403 20.6152L8.75075 18.4145L12.6822 22.3459C12.8347 22.4985 13.0347 22.5748 13.2346 22.5748C13.4346 22.5748 13.6346 22.4984 13.7871 22.3459C14.0921 22.0409 14.0921 21.5462 13.787 21.2411L9.34348 16.7976L11.104 11.9947C11.1622 11.836 11.2898 11.7861 11.3607 11.7704C11.3823 11.7656 11.41 11.7615 11.4415 11.7615C11.5133 11.7615 11.6048 11.7828 11.6879 11.866L28.1339 28.312C28.2535 28.4316 28.2451 28.5684 28.2295 28.6393Z" fill="black"/>
<path d="M23.5625 6.2347C23.994 6.2347 24.3437 5.88493 24.3437 5.45345C24.3437 4.79915 24.8761 4.26688 25.5304 4.26688C27.0462 4.26688 28.2795 3.03368 28.2795 1.51782C28.2795 1.08634 27.9296 0.736572 27.4982 0.736572C27.0668 0.736572 26.717 1.08634 26.717 1.51782C26.717 2.17212 26.1846 2.70438 25.5304 2.70438C24.0145 2.70438 22.7812 3.93759 22.7812 5.45345C22.7812 5.88493 23.1311 6.2347 23.5625 6.2347Z" fill="black"/>
<path d="M30.4937 13.6089C32.0592 13.6089 33.3329 12.3353 33.3329 10.7698C33.3329 10.0659 33.9055 9.49316 34.6095 9.49316C35.0409 9.49316 35.3908 9.1434 35.3908 8.71191C35.3908 8.28043 35.0409 7.93066 34.6095 7.93066C33.044 7.93066 31.7704 9.20434 31.7704 10.7698C31.7704 11.4737 31.1976 12.0464 30.4937 12.0464C30.0622 12.0464 29.7124 12.3962 29.7124 12.8277C29.7124 13.2592 30.0622 13.6089 30.4937 13.6089Z" fill="black"/>
<path d="M35 15.116C35 16.4945 36.1215 17.616 37.5 17.616C38.8785 17.616 40 16.4945 40 15.116C40 13.7375 38.8785 12.616 37.5 12.616C36.1215 12.616 35 13.7375 35 15.116ZM37.5 14.1785C38.017 14.1785 38.4375 14.599 38.4375 15.116C38.4375 15.6329 38.017 16.0535 37.5 16.0535C36.983 16.0535 36.5625 15.6329 36.5625 15.116C36.5625 14.599 36.983 14.1785 37.5 14.1785Z" fill="black"/>
<path d="M24.6177 13.2698C25.9962 13.2698 27.1177 12.1483 27.1177 10.7698C27.1177 9.39126 25.9962 8.26978 24.6177 8.26978C23.2392 8.26978 22.1177 9.39126 22.1177 10.7698C22.1177 12.1483 23.2392 13.2698 24.6177 13.2698ZM24.6177 9.83228C25.1346 9.83228 25.5552 10.2528 25.5552 10.7698C25.5552 11.2867 25.1346 11.7073 24.6177 11.7073C24.1007 11.7073 23.6802 11.2867 23.6802 10.7698C23.6802 10.2528 24.1007 9.83228 24.6177 9.83228Z" fill="black"/>
<path d="M10 5C11.3785 5 12.5 3.87852 12.5 2.5C12.5 1.12148 11.3785 0 10 0C8.62148 0 7.5 1.12148 7.5 2.5C7.5 3.87852 8.62148 5 10 5ZM10 1.5625C10.517 1.5625 10.9375 1.98305 10.9375 2.5C10.9375 3.01695 10.517 3.4375 10 3.4375C9.48305 3.4375 9.0625 3.01695 9.0625 2.5C9.0625 1.98305 9.48305 1.5625 10 1.5625Z" fill="black"/>
<path d="M35.3518 27.4263C35.0468 27.1213 34.5523 27.1213 34.2469 27.4262C33.9418 27.7313 33.9418 28.226 34.2469 28.5311L34.9834 29.2676C35.136 29.4202 35.3359 29.4965 35.5359 29.4965C35.7358 29.4965 35.9357 29.4201 36.0883 29.2676C36.3933 28.9626 36.3933 28.4679 36.0883 28.1628L35.3518 27.4263Z" fill="black"/>
<path d="M39.0349 31.1092C38.7297 30.8041 38.2352 30.8041 37.93 31.1092C37.6249 31.4143 37.6249 31.9089 37.93 32.2141L38.6665 32.9507C38.8191 33.1033 39.019 33.1795 39.219 33.1795C39.4189 33.1795 39.6188 33.1033 39.7714 32.9507C40.0765 32.6456 40.0765 32.1509 39.7714 31.8457L39.0349 31.1092Z" fill="black"/>
<path d="M38.6665 27.4263L37.93 28.1629C37.6249 28.468 37.6249 28.9627 37.93 29.2677C38.0826 29.4203 38.2825 29.4966 38.4824 29.4966C38.6823 29.4966 38.8823 29.4202 39.0348 29.2677L39.7714 28.5312C40.0765 28.2261 40.0765 27.7314 39.7714 27.4263C39.4663 27.1212 38.9716 27.1213 38.6665 27.4263Z" fill="black"/>
<path d="M34.9834 31.1092L34.2469 31.8457C33.9418 32.1508 33.9418 32.6455 34.2469 32.9507C34.3995 33.1033 34.5994 33.1795 34.7993 33.1795C34.9993 33.1795 35.1991 33.1033 35.3517 32.9507L36.0883 32.2141C36.3933 31.909 36.3933 31.4143 36.0883 31.1092C35.7831 30.8041 35.2886 30.8041 34.9834 31.1092Z" fill="black"/>
<path d="M38.4825 2.29904C38.6824 2.29904 38.8824 2.22279 39.0349 2.07021L39.7715 1.33365C40.0765 1.02857 40.0765 0.533887 39.7715 0.228809C39.4663 -0.0762695 38.9716 -0.0762695 38.6665 0.228809L37.93 0.965371C37.6249 1.27045 37.6249 1.76514 37.93 2.07021C38.0826 2.22279 38.2825 2.29904 38.4825 2.29904Z" fill="black"/>
<path d="M34.7994 5.98186C34.9994 5.98186 35.1992 5.90561 35.3518 5.75303L36.0883 5.01647C36.3934 4.71139 36.3934 4.2167 36.0883 3.91155C35.7832 3.60647 35.2887 3.60647 34.9834 3.91155L34.2469 4.64811C33.9418 4.95319 33.9418 5.44788 34.2469 5.75303C34.3995 5.90561 34.5995 5.98186 34.7994 5.98186Z" fill="black"/>
<path d="M39.0349 3.91167C38.7297 3.60659 38.2352 3.60659 37.93 3.91167C37.6249 4.21675 37.6249 4.71144 37.93 5.01659L38.6665 5.75315C38.8191 5.90573 39.019 5.98198 39.219 5.98198C39.4189 5.98198 39.6188 5.90573 39.7714 5.75315C40.0765 5.44808 40.0765 4.95339 39.7714 4.64823L39.0349 3.91167Z" fill="black"/>
<path d="M34.9835 2.07021C35.1361 2.22279 35.336 2.29904 35.5359 2.29904C35.7358 2.29904 35.9358 2.22279 36.0883 2.07021C36.3934 1.76514 36.3934 1.27045 36.0883 0.965371L35.3518 0.228809C35.0468 -0.0762695 34.5523 -0.0762695 34.2469 0.228809C33.9418 0.533887 33.9418 1.02857 34.2469 1.33365L34.9835 2.07021Z" fill="black"/>
<path d="M15.7202 23.4983C15.5147 23.4983 15.3132 23.5819 15.1679 23.7272C15.0226 23.8725 14.939 24.0741 14.939 24.2795C14.939 24.485 15.0226 24.6866 15.1679 24.8319C15.3132 24.9772 15.5147 25.0608 15.7202 25.0608C15.9257 25.0608 16.1272 24.9772 16.2726 24.8319C16.4179 24.6866 16.5015 24.485 16.5015 24.2795C16.5015 24.0741 16.4179 23.8725 16.2726 23.7272C16.1272 23.5819 15.9257 23.4983 15.7202 23.4983Z" fill="black"/>
<path d="M27.1185 15.3605L26.552 15.9269C26.247 16.232 26.247 16.7267 26.552 17.0318C26.7046 17.1844 26.9045 17.2607 27.1045 17.2607C27.3044 17.2607 27.5043 17.1844 27.6569 17.0318L28.2233 16.4654C28.5284 16.1604 28.5284 15.6657 28.2233 15.3605C27.9181 15.0554 27.4236 15.0554 27.1185 15.3605Z" fill="black"/>
</g>
<defs>
<clipPath id="clip0_46_1775">
<rect width="40" height="40" fill="white"/>
</clipPath>
</defs>
</svg>
