<svg width="16" height="16" viewBox="0 0 16 16" fill="none" xmlns="http://www.w3.org/2000/svg">
<path d="M15.5394 11.9944L13.2269 9.68088C12.9163 9.3719 12.5005 9.20166 12.0561 9.20166C11.5936 9.20166 11.1569 9.38375 10.8268 9.7141L9.92661 10.6141C9.22712 10.2253 8.29742 9.69054 7.33218 8.7253C6.36806 7.76085 5.83324 6.83387 5.44246 6.1306L6.3435 5.23022C7.01341 4.55893 7.02711 3.48196 6.37415 2.8296L4.06208 0.517463C3.75238 0.206901 3.33651 0.0358677 2.89098 0.0358677C2.43884 0.0358677 2.01113 0.209946 1.68289 0.526796C1.48432 0.68671 0.487838 1.56637 0.116448 3.38049C-0.403538 5.91972 0.791184 8.36284 4.24019 11.8132C8.09302 15.6649 11.3822 15.9643 12.2985 15.9643C12.4893 15.9643 12.6044 15.9525 12.6351 15.9489C14.4319 15.7383 15.0753 14.9403 15.545 14.3576C16.1537 13.6025 16.1516 12.6088 15.5394 11.9944ZM14.7721 13.7345C14.3305 14.2821 13.9135 14.7993 12.5196 14.9627C12.5189 14.9628 12.4426 14.9713 12.2985 14.9713C11.4787 14.9713 8.52518 14.6929 4.94227 11.1112C1.76166 7.92924 0.645303 5.74717 1.0891 3.57959C1.41304 1.99726 2.27304 1.32471 2.30646 1.29916L2.33612 1.27725L2.36213 1.25117C2.50569 1.10774 2.69347 1.02871 2.89092 1.02871C3.07069 1.02871 3.23696 1.09609 3.35954 1.21907L5.67214 3.53174C5.93822 3.79755 5.92406 4.24486 5.64096 4.52855L4.62197 5.54668L4.60523 5.56422C4.33968 5.85671 4.37092 6.25199 4.5172 6.5094C4.93929 7.27111 5.51745 8.31433 6.62997 9.42717C7.73878 10.536 8.78047 11.1137 9.54006 11.535C9.61611 11.5777 9.77312 11.6493 9.96963 11.6493C10.2017 11.6493 10.4148 11.5511 10.5725 11.372L11.5288 10.416C11.6716 10.2731 11.8588 10.1944 12.0559 10.1944C12.2361 10.1944 12.4032 10.262 12.5255 10.3837L14.8366 12.6957C15.1301 12.9903 15.0089 13.4407 14.7721 13.7345Z" fill="#18130C"/>
<path d="M9.69311 2.4684C10.5461 2.56656 11.5505 3.08324 12.2518 3.78465C12.9597 4.49254 13.4776 5.5071 13.5712 6.36935C13.5988 6.62371 13.8139 6.81222 14.0641 6.81222C14.0819 6.81222 14.1001 6.81123 14.1182 6.80931C14.3908 6.77972 14.5878 6.53482 14.5582 6.26225C14.4399 5.17231 13.8251 3.95396 12.9539 3.08264C12.0908 2.21946 10.8849 1.60622 9.80663 1.48211C9.53439 1.45054 9.2881 1.64619 9.25673 1.9185C9.22535 2.1908 9.42068 2.43703 9.69311 2.4684Z" fill="#18130C"/>
<path d="M9.2293 4.54795C9.69064 4.6011 10.3291 4.9433 10.7474 5.36155C11.1692 5.78344 11.512 6.428 11.5626 6.8943C11.5902 7.14874 11.8053 7.33724 12.0555 7.33724C12.0733 7.33724 12.0914 7.33625 12.1095 7.33433C12.3821 7.30474 12.5792 7.05984 12.5496 6.78728C12.4633 5.99115 11.9347 5.14491 11.4493 4.65948C10.9682 4.17835 10.1303 3.65234 9.34282 3.56159C9.07018 3.52989 8.82422 3.72561 8.79284 3.99792C8.76154 4.27029 8.95693 4.51658 9.2293 4.54795Z" fill="#18130C"/>
</svg>
