<svg width="16" height="16" viewBox="0 0 16 16" fill="none" xmlns="http://www.w3.org/2000/svg">
<path d="M13.6578 2.34316C12.1468 0.832156 10.1379 0 8.00095 0C5.86404 0 3.85513 0.832156 2.3441 2.34316C0.833133 3.85416 0.000976562 5.86312 0.000976562 8C0.000976562 10.1369 0.833133 12.1458 2.34413 13.6569C3.85513 15.1678 5.8641 16 8.00098 16C9.3266 16 10.64 15.6689 11.7991 15.0426C12.0329 14.9162 12.12 14.6242 11.9937 14.3903C11.8674 14.1565 11.5754 14.0694 11.3415 14.1958C10.3224 14.7464 9.16732 15.0374 8.00098 15.0374C4.12051 15.0374 0.963508 11.8805 0.963508 8C0.963508 4.11953 4.12051 0.962563 8.00095 0.962563C11.8814 0.962563 15.0384 4.11956 15.0384 8C15.0384 8.91841 14.8153 10.0111 14.6151 10.4175C14.4375 10.7778 13.9344 11.2852 13.3719 11.2852C12.6439 11.2852 12.0515 10.6929 12.0515 9.96478V4.89012C12.0515 4.62434 11.836 4.40884 11.5702 4.40884C11.3044 4.40884 11.0889 4.62431 11.0889 4.89012V5.38188C10.3454 4.50622 9.23704 3.94947 8.00095 3.94947C5.76751 3.94947 3.95041 5.76653 3.95041 8C3.95041 10.2334 5.76745 12.0505 8.00095 12.0505C9.27719 12.0505 10.4173 11.4571 11.1602 10.5317C11.413 11.5172 12.3087 12.2478 13.3719 12.2478C14.3004 12.2478 15.1345 11.541 15.4785 10.8429C15.7714 10.2484 16.0009 8.99969 16.0009 8.00003C16.0009 5.86313 15.1688 3.85416 13.6578 2.34316ZM8.00095 11.088C6.29826 11.088 4.91298 9.70272 4.91298 8C4.91298 6.29728 6.29823 4.91203 8.00095 4.91203C9.70366 4.91203 11.0889 6.29728 11.0889 8C11.0889 9.70272 9.70366 11.088 8.00095 11.088Z" fill="#18130C"/>
</svg>
