<svg width="36" height="37" viewBox="0 0 36 37" fill="none" xmlns="http://www.w3.org/2000/svg">
<path fill-rule="evenodd" clip-rule="evenodd" d="M26.9898 18.6079C26.2618 18.8062 25.5104 18.9871 24.7358 19.1387V19.6987V21.4254V23.7061V25.9869V28.886V34.4859V36.9942L26.9898 35.4484L29.2438 33.9026L31.4978 32.3626L33.7518 30.8226V28.3085V23.1578V20.6729V18.1529C33.0471 18.5729 32.2957 18.9637 31.4978 19.3254C30.7756 19.6521 30.0243 19.9496 29.2438 20.2237V22.5687C30.0184 22.312 30.7698 22.0378 31.4978 21.7345V24.132V29.8543L29.238 31.3943L26.984 32.9343V25.5203V23.2161V20.912V19.6929V18.6079H26.9898ZM24.7358 12.4072C25.5454 12.2439 26.2967 12.0631 26.9898 11.8531V10.8498V8.04399V5.53571V5.01655V2.81744C27.7994 3.06243 28.5565 3.34242 29.2438 3.64575C29.3487 3.68658 29.4418 3.73325 29.5409 3.77992C30.2747 4.12407 30.9329 4.50323 31.4978 4.90572C31.5095 4.91156 31.5153 4.91739 31.5269 4.92906C32.9364 5.94987 33.746 7.15151 33.746 8.43481C33.746 9.72395 32.9248 10.9314 31.492 11.9639C30.8513 12.4189 30.0942 12.8447 29.238 13.2239C28.5507 13.5272 27.7936 13.8014 26.984 14.0522C26.2734 14.268 25.5221 14.4547 24.73 14.6238C24.0078 14.7697 23.2564 14.898 22.476 14.9972C21.0548 15.1838 19.5522 15.2772 17.9913 15.2772C16.4304 15.2772 14.9277 15.1838 13.5066 14.9972V17.2488C14.9393 17.4354 16.442 17.5346 17.9913 17.5346C19.5347 17.5346 21.0374 17.4354 22.476 17.2488C23.2506 17.1496 24.0019 17.0213 24.73 16.8755C25.5104 16.7121 26.2618 16.5313 26.984 16.3155C27.7761 16.088 28.5274 15.8255 29.238 15.5396C30.0534 15.213 30.8047 14.8513 31.492 14.4547C32.354 13.9589 33.1111 13.4222 33.746 12.8447C35.1846 11.5381 36 10.0389 36 8.43481C36 6.83068 35.1846 5.33155 33.746 4.02491C33.6179 3.90825 33.4839 3.79158 33.3499 3.68075C32.8083 3.23159 32.1967 2.81744 31.5153 2.42661L31.4978 2.43828V2.41495C30.8105 2.01829 30.0534 1.65663 29.2438 1.32997C28.8711 1.17831 28.475 1.03831 28.079 0.898313C27.7237 0.775816 27.3626 0.664985 26.9956 0.554154C26.2676 0.344159 25.5163 0.157496 24.7358 0V0.898313V2.25162V4.4624V5.52988V7.06984V9.57812V10.1439V11.3981V12.4072ZM6.75619 15.5338C5.94661 15.2072 5.18945 14.8455 4.50218 14.4488C3.64019 13.953 2.88303 13.4164 2.24818 12.8389C0.815402 11.5381 0 10.0331 0 8.43481C0 6.83068 0.815402 5.33155 2.254 4.02491C2.38214 3.90825 2.5161 3.79158 2.65588 3.68075C3.19754 3.23159 3.80909 2.81744 4.49054 2.42661L4.50801 2.43828V2.41495C5.19528 2.01829 5.95244 1.65663 6.76201 1.32997C7.14059 1.17831 7.53082 1.03831 7.92687 0.898313C8.27633 0.775816 8.64326 0.664985 9.01019 0.554154C9.73241 0.344159 10.4837 0.157496 11.2642 0V0.898313V2.25162V4.4624V5.52988V7.06984V9.57812V9.89311V19.1387C10.4896 18.9871 9.73823 18.8121 9.01019 18.6079V10.5931V8.03815V5.52988V5.01655V2.81744C8.20061 3.06243 7.44928 3.34242 6.75619 3.64575C6.65718 3.68658 6.55816 3.73325 6.45915 3.77992C5.72529 4.12407 5.06714 4.50323 4.50801 4.90572C4.49636 4.91156 4.48471 4.91739 4.47889 4.92906C3.06358 5.94987 2.254 7.15151 2.254 8.43481C2.254 9.72395 3.07523 10.9314 4.50801 11.9639C5.14286 12.4189 5.90002 12.8447 6.76201 13.2239V15.5338H6.75619ZM11.2642 25.9869C10.5012 25.8528 9.74988 25.7011 9.01019 25.5261V27.7894C9.01019 32.2051 9.01019 28.5244 9.01019 32.9401L6.75619 31.3943L4.50218 29.8543V24.132V21.7345C5.23022 22.032 5.98156 22.312 6.75619 22.5687V20.2237C7.48423 20.4804 8.23556 20.7079 9.01019 20.912C9.74405 21.1045 10.4954 21.2679 11.2642 21.4195C11.9981 21.5537 12.7494 21.6762 13.5182 21.7695C14.9685 21.9445 16.4653 22.0378 18.0029 22.0378C19.5347 22.0378 21.0374 21.9445 22.4876 21.7695V24.0328C21.0315 24.202 19.5347 24.2953 18.0029 24.2953C16.4711 24.2953 14.9743 24.202 13.5182 24.0328C12.7552 23.9453 12.0039 23.8345 11.2642 23.7003C10.4954 23.5545 9.74405 23.4028 9.01019 23.2161C8.24139 23.0236 7.49005 22.8078 6.75619 22.5687V20.2237C5.97573 19.9496 5.2244 19.6521 4.50218 19.3254C3.71008 18.9637 2.95874 18.5729 2.24818 18.1529V20.6729V23.1578V28.3144V30.8285L4.50218 32.3684L6.75619 33.9084L9.01019 35.4542L11.2642 37V34.4917C11.2642 29.5627 11.2642 32.7243 11.2642 27.7952V25.9869Z" fill="white"/>
</svg>
