<svg width="16" height="16" viewBox="0 0 16 16" fill="none" xmlns="http://www.w3.org/2000/svg">
<g clip-path="url(#clip0_31_5367)">
<path d="M14.1087 6.38831L3.31716 0.246419C2.17244 -0.407098 1.00537 0.30762 1.00537 1.59284V14.4147C1.00537 15.5035 1.71424 16 2.37307 16C2.68334 16 2.99945 15.9021 3.31344 15.711L14.1534 9.07582C14.6984 8.74108 15.0044 8.24562 14.9948 7.7161C14.9857 7.18605 14.6632 6.70177 14.1087 6.38831ZM13.427 7.89066L2.58754 14.5243C2.51463 14.569 2.45716 14.5913 2.41778 14.6025C2.40713 14.5631 2.39649 14.5025 2.39649 14.4147V1.59337C2.39649 1.46139 2.42044 1.39486 2.42044 1.37837C2.46301 1.38103 2.53752 1.40285 2.63118 1.45606L13.4211 7.59796C13.5542 7.67406 13.5936 7.74005 13.6063 7.72568C13.5994 7.74377 13.5542 7.81136 13.427 7.89066Z" fill="white"/>
</g>
<defs>
<clipPath id="clip0_31_5367">
<rect width="16" height="16" fill="white"/>
</clipPath>
</defs>
</svg>
