<svg width="40" height="40" viewBox="0 0 40 40" fill="none" xmlns="http://www.w3.org/2000/svg">
<g clip-path="url(#clip0_46_1723)">
<path d="M39.1665 16.6666H36.8715C36.8256 16.5507 36.7781 16.4357 36.7265 16.3199L38.3506 14.6966C38.676 14.3712 38.676 13.8437 38.3506 13.5182L34.8148 9.98235C34.4894 9.65704 33.9619 9.65704 33.6364 9.98235L32.0131 11.6065C31.8972 11.5556 31.7822 11.5073 31.6664 11.4606V9.16649C31.6664 8.70625 31.2933 8.33313 30.8331 8.33313H25.8331C25.3728 8.33313 24.9997 8.70625 24.9997 9.16649V11.4606C24.8838 11.5073 24.7688 11.5556 24.6531 11.6065L23.0297 9.98235C22.7043 9.65704 22.1768 9.65704 21.8513 9.98235L18.3155 13.5182C17.9902 13.8436 17.9902 14.3711 18.3155 14.6966L19.9396 16.3199C19.888 16.4358 19.8405 16.5508 19.7946 16.6666H17.4999C17.0396 16.6666 16.6665 17.0397 16.6665 17.4999V22.4999C16.6665 22.9602 17.0396 23.3333 17.4999 23.3333H19.7949C19.8407 23.4491 19.8882 23.5641 19.9399 23.6799L18.3157 25.3033C17.9904 25.6287 17.9904 26.1562 18.3157 26.4816L21.8516 30.0175C22.177 30.3428 22.7045 30.3428 23.0299 30.0175L24.6533 28.3934C24.7692 28.4442 24.8842 28.4925 24.9999 28.5392V30.8334C24.9999 31.2936 25.3731 31.6667 25.8333 31.6667H30.8333C31.2935 31.6667 31.6667 31.2936 31.6667 30.8334V28.5392C31.7825 28.4926 31.8975 28.4442 32.0133 28.3934L33.6367 30.0175C33.9621 30.3428 34.4896 30.3428 34.815 30.0175L38.3509 26.4816C38.6762 26.1563 38.6762 25.6288 38.3509 25.3033L36.7267 23.6799C36.7784 23.5641 36.8259 23.4491 36.8717 23.3333H39.1667C39.627 23.3333 40.0001 22.9602 40.0001 22.4999V17.4999C39.9999 17.0397 39.6267 16.6666 39.1665 16.6666ZM38.3332 21.6666H36.2849C35.9209 21.6666 35.5991 21.9027 35.4899 22.2499C35.356 22.6689 35.186 23.0755 34.9815 23.4649C34.8129 23.7876 34.8733 24.1824 35.1306 24.4399L36.5831 25.8924L34.2257 28.2499L32.7741 26.7966C32.5166 26.5392 32.1217 26.4788 31.7991 26.6474C31.4096 26.8524 31.0028 27.0225 30.5832 27.1558C30.236 27.265 29.9999 27.5868 29.9999 27.9508V29.9999H26.6665L26.6674 27.9516C26.6674 27.5876 26.4312 27.2658 26.084 27.1566C25.6646 27.0233 25.2577 26.8532 24.8681 26.6482C24.5455 26.4796 24.1506 26.54 23.8931 26.7973L22.4407 28.2499L20.0832 25.8924L21.5366 24.4399C21.7939 24.1824 21.8544 23.7876 21.6857 23.4649C21.4813 23.0755 21.3112 22.6689 21.1774 22.2499C21.0681 21.9027 20.7463 21.6666 20.3824 21.6666H18.3332V18.3332H20.3816C20.7456 18.3332 21.0674 18.097 21.1766 17.7498C21.3104 17.3309 21.4805 16.9243 21.6849 16.5348C21.8535 16.2122 21.7931 15.8173 21.5358 15.5598L20.0833 14.1073L22.4408 11.7498L23.8924 13.2032C24.1499 13.4606 24.5448 13.5209 24.8674 13.3523C25.2569 13.1473 25.6638 12.9773 26.0833 12.844C26.4305 12.7348 26.6667 12.413 26.6667 12.049V9.99993H29.9992V12.0483C29.9992 12.4123 30.2353 12.7341 30.5825 12.8433C31.002 12.9766 31.4088 13.1466 31.7984 13.3516C32.121 13.5202 32.5159 13.4598 32.7734 13.2025L34.2259 11.75L36.5834 14.1075L35.13 15.56C34.8727 15.8175 34.8122 16.2123 34.9809 16.535C35.1853 16.9245 35.3554 17.331 35.4892 17.75C35.5985 18.0972 35.9203 18.3334 36.2842 18.3334H38.3334V21.6666H38.3332Z" fill="black"/>
<path d="M28.3336 15.8334C26.0325 15.8334 24.167 17.6988 24.167 20C24.167 22.3012 26.0325 24.1666 28.3336 24.1666C30.6336 24.1639 32.4975 22.3001 32.5003 20C32.5003 17.6988 30.6348 15.8334 28.3336 15.8334ZM28.3336 22.5C26.9529 22.5 25.8336 21.3807 25.8336 20C25.8336 18.6193 26.9529 17.5 28.3336 17.5C29.7143 17.5 30.8336 18.6193 30.8336 20C30.8336 21.3807 29.7143 22.5 28.3336 22.5Z" fill="black"/>
<path d="M30 6.66664V4.16664C29.9973 1.86664 28.1334 0.00273437 25.8334 0H7.5C7.27898 7.8125e-05 7.06711 0.0878906 6.91086 0.244141L0.244141 6.91086C0.0878906 7.06711 0 7.27906 0 7.5V35.8334C0.00273437 38.1334 1.86664 39.9973 4.16664 40H25.8333C28.1334 39.9973 29.9972 38.1334 29.9999 35.8334V33.3334H28.3333V35.8334C28.3333 37.2141 27.214 38.3334 25.8333 38.3334H4.16664C2.78594 38.3334 1.66664 37.2141 1.66664 35.8334V7.845L7.845 1.66664H25.8334C27.2141 1.66664 28.3334 2.78594 28.3334 4.16664V6.66664H30Z" fill="black"/>
<path d="M6.6665 0.833374V5.83337C6.6665 6.29361 6.29338 6.66673 5.83314 6.66673H4.1665V8.33337H5.83314C7.21385 8.33337 8.33314 7.21408 8.33314 5.83337V0.833374H6.6665Z" fill="black"/>
<path d="M15 19.1666H7.5V20.8333H15V19.1666Z" fill="black"/>
<path d="M5.83314 19.1666H4.1665V20.8333H5.83314V19.1666Z" fill="black"/>
<path d="M15.8331 25H9.1665V26.6666H15.8331V25Z" fill="black"/>
<path d="M7.50014 25H5.8335V26.6666H7.50014V25Z" fill="black"/>
<path d="M15.8331 13.3334H9.1665V15H15.8331V13.3334Z" fill="black"/>
<path d="M7.50014 13.3334H5.8335V15H7.50014V13.3334Z" fill="black"/>
<path d="M5.8335 35C5.37326 35 5.00014 34.6269 5.00014 34.1666V32.5H3.3335V34.1666C3.3335 35.5473 4.45279 36.6666 5.8335 36.6666H7.50014V35H5.8335Z" fill="black"/>
<path d="M10.8331 35H9.1665V36.6666H10.8331V35Z" fill="black"/>
</g>
<defs>
<clipPath id="clip0_46_1723">
<rect width="40" height="40" fill="white"/>
</clipPath>
</defs>
</svg>
