<svg width="40" height="40" viewBox="0 0 40 40" fill="none" xmlns="http://www.w3.org/2000/svg">
<g clip-path="url(#clip0_46_1631)">
<path d="M5.83302 6.65466C4.45231 6.65466 3.33301 7.77396 3.33301 9.15467V15.8213H4.99966V9.15467C4.99966 8.69444 5.37278 8.32131 5.83302 8.32131H25.8331V6.65466H5.83302Z" fill="black"/>
<path d="M5.83302 31.6548C5.37278 31.6548 4.99966 31.2817 4.99966 30.8214V22.488H3.33301V30.8214C3.33301 32.2021 4.45231 33.3214 5.83302 33.3214H14.1664V31.6548H5.83302Z" fill="black"/>
<path d="M26.4224 33.8038L6.18401 13.5654C5.85862 13.2401 5.33111 13.2401 5.00564 13.5654L0.243985 18.3271C-0.0813284 18.6525 -0.0813284 19.18 0.243985 19.5055L20.4824 39.7439C20.6387 39.9002 20.8506 39.988 21.0716 39.988C21.2926 39.9879 21.5045 39.9001 21.6607 39.7439L26.4224 34.9822C26.7478 34.6567 26.7478 34.1292 26.4224 33.8038ZM21.0716 37.9764L2.01149 18.9163L5.59487 15.3329L24.6549 34.3931L21.0716 37.9764Z" fill="black"/>
<path d="M36.6666 31.6548H24.1665V33.3214H33.3332V37.4881C33.3332 37.9483 33.7063 38.3215 34.1665 38.3215H36.6666C38.5075 38.3215 39.9999 36.8291 39.9999 34.9881C39.9999 33.1471 38.5075 31.6548 36.6666 31.6548ZM36.6666 36.6548H34.9999V33.3214H36.6666C37.587 33.3214 38.3332 34.0676 38.3332 34.9881C38.3332 35.9086 37.587 36.6548 36.6666 36.6548Z" fill="black"/>
<path d="M36.6667 6.65466H32.5V8.32131H36.6667C37.5871 8.32131 38.3333 9.06749 38.3333 9.98796V34.9881H39.9999V9.98796C40 8.14701 38.5076 6.65466 36.6667 6.65466Z" fill="black"/>
<path d="M15.2444 23.5653L12.7441 26.0656L13.9226 27.244L16.4228 24.7438L15.2444 23.5653Z" fill="black"/>
<path d="M11.9109 20.232L9.41064 22.7322L10.5891 23.9107L13.0893 21.4105L11.9109 20.232Z" fill="black"/>
<path d="M18.5759 26.8987L16.0757 29.3989L17.2542 30.5774L19.7544 28.0772L18.5759 26.8987Z" fill="black"/>
<path d="M21.9109 30.2337L19.4106 32.7339L20.5891 33.9124L23.0894 31.4122L21.9109 30.2337Z" fill="black"/>
<path d="M8.57541 16.8985L6.0752 19.3987L7.25368 20.5772L9.75389 18.077L8.57541 16.8985Z" fill="black"/>
<path d="M35.9449 1.86129L34.7932 0.709641C33.8187 -0.220597 32.2851 -0.220597 31.3107 0.709641L18.639 13.3813C18.3137 13.7067 18.3137 14.2342 18.639 14.5597L22.0949 18.0156C22.2507 18.1724 22.4629 18.2603 22.684 18.2597C22.905 18.2596 23.1169 18.1718 23.2732 18.0156L35.9449 5.3438C35.9453 5.34341 35.9457 5.34302 35.9461 5.34263C36.9071 4.38098 36.9066 2.82231 35.9449 1.86129ZM34.7674 4.16465L22.684 16.248L20.4065 13.9705L32.4899 1.88793C32.8046 1.58722 33.3002 1.58722 33.6149 1.88793L34.7674 3.03879C34.7675 3.03895 34.7676 3.03903 34.7678 3.03918C35.0784 3.35004 35.0783 3.85395 34.7674 4.16465Z" fill="black"/>
<path d="M22.4163 16.6363L18.8196 17.8372L20.0205 14.2347L18.4371 13.7072L16.7087 18.8913C16.6805 18.9763 16.666 19.0653 16.666 19.1548C16.6661 19.6151 17.0393 19.9881 17.4995 19.988C17.5877 19.9883 17.6755 19.9748 17.7595 19.948L22.9437 18.2196L22.4163 16.6363Z" fill="black"/>
<path d="M30.1843 3.0128L29.0059 4.19128L32.4618 7.64725L33.6403 6.46876L30.1843 3.0128Z" fill="black"/>
<path d="M30 18.3213H17.5V19.9879H30V18.3213Z" fill="black"/>
<path d="M33.3332 18.3213H31.6665V19.9879H33.3332V18.3213Z" fill="black"/>
<path d="M36.6666 18.3213H35V19.9879H36.6666V18.3213Z" fill="black"/>
</g>
<defs>
<clipPath id="clip0_46_1631">
<rect width="40" height="40" fill="white"/>
</clipPath>
</defs>
</svg>
